<svg id="Capa_1" enable-background="new 0 0 512 512" height="512" viewBox="0 0 512 512" width="512" xmlns="http://www.w3.org/2000/svg"><g><path d="m511.945 254.389c0-15.02-5.851-29.14-16.474-39.757l-198.06-198.06c-21.549-21.561-55.864-22.158-78.121-1.358-.017.016-.088.084-.105.1-.437.416-.873.832-1.296 1.256l-2.781 2.781c-38.036-25.514-89.538-20.857-122.376 11.98-18.273 18.269-28.337 42.594-28.337 68.494s10.064 50.227 28.337 68.5l87.875 87.875c4.999 5 7.752 11.661 7.749 18.756-.002 7.096-2.758 13.759-7.761 18.762l-14.057 14.065-23.713-23.713c-10.51-10.511-27.613-10.511-38.123 0-10.51 10.51-10.51 27.612 0 38.123l4.619 4.619c-9.609.883-18.529 5.047-25.438 11.956l-21.756 21.746c-2.929 2.928-2.93 7.676-.002 10.605 2.928 2.93 7.676 2.929 10.605.002l21.757-21.748c4.996-4.996 11.636-7.747 18.698-7.747 7.06 0 13.697 2.751 18.691 7.748l30.8 30.791c10.285 10.314 10.281 27.072-.017 37.37l-71.72 71.72c-4.991 4.995-11.629 7.745-18.692 7.745s-13.701-2.751-18.695-7.748l-30.782-30.772c-10.303-10.312-10.303-27.09-.002-37.4l28.865-28.865c2.929-2.928 2.929-7.676 0-10.605-2.928-2.929-7.676-2.929-10.605 0l-28.865 28.87c-16.145 16.157-16.145 42.446.003 58.606l30.782 30.772c7.823 7.83 18.229 12.142 29.3 12.142s21.477-4.312 29.298-12.14l71.718-71.718c7.099-7.099 11.075-16.157 11.932-25.454l4.639 4.639c5.255 5.255 12.158 7.882 19.061 7.882s13.806-2.627 19.061-7.882c5.091-5.091 7.896-11.861 7.896-19.061s-2.804-13.97-7.896-19.061l-23.708-23.707 14.067-14.06c31.137-31.147 31.136-81.82-.001-112.957l-87.874-87.874c-16.963-16.971-16.963-44.585-.001-61.555 11.927-11.927 29.785-15.645 45.279-10.237-9.656 10.418-14.957 23.883-14.957 38.169 0 15.022 5.851 29.144 16.474 39.76l198.057 198.057c6.427 6.436 14.216 11.162 22.79 13.869v64.821c0 17.87 14.283 32.648 31.836 32.943.191.003.38.005.571.005 8.646 0 16.755-3.357 22.881-9.483 6.121-6.107 9.491-14.241 9.491-22.906v-87.289l32.608-32.608c10.624-10.623 16.475-24.744 16.475-39.764zm-294.591 142.333c-4.663 4.663-12.25 4.663-16.913 0l-85.133-85.133c-4.663-4.663-4.663-12.25 0-16.913 4.663-4.662 12.25-4.662 16.913 0l85.133 85.133c4.663 4.663 4.663 12.251 0 16.913zm-97.518-338.273c-22.805 22.817-22.805 59.943.001 82.761l87.875 87.875c25.291 25.291 25.29 66.449.001 91.747l-14.068 14.06-16.503-16.504 14.059-14.066c7.833-7.833 12.149-18.261 12.152-29.361.003-11.103-4.309-21.532-12.142-29.365l-87.875-87.875c-15.441-15.441-23.944-36.002-23.944-57.896s8.503-42.452 23.944-57.889c27.043-27.043 69.062-31.48 100.931-11.743l-17.166 17.166c-22.136-10.865-49.559-6.617-67.265 11.09zm328.03 355.602c0 4.652-1.806 9.016-5.092 12.295-3.366 3.366-7.846 5.167-12.599 5.093-9.425-.158-17.093-8.21-17.093-17.948v-111.571c0-4.141-3.357-7.499-7.499-7.499-4.141 0-7.499 3.357-7.499 7.499v30.711c-4.504-2.035-8.627-4.871-12.181-8.43l-198.063-198.063c-7.79-7.785-12.08-18.139-12.08-29.154s4.29-21.369 12.081-29.156l29.072-29.072v83.034c0 16.732 13.381 30.537 29.83 30.774 8.233.129 15.997-3.03 21.844-8.864 5.717-5.717 8.866-13.317 8.866-21.4v-2.1c0-7.97 6.259-14.56 13.949-14.688 3.906-.055 7.539 1.413 10.289 4.17 2.68 2.673 4.157 6.235 4.157 10.029v90.945c0 18.155 14.765 32.924 32.914 32.924 8.792 0 17.06-3.425 23.274-9.639 6.223-6.21 9.651-14.48 9.651-23.285v-4.57c0-7.494 5.857-13.652 13.055-13.728 3.547-.04 6.946 1.338 9.471 3.856 2.496 2.503 3.87 5.82 3.87 9.343v66.629c0 4.141 3.357 7.499 7.499 7.499 4.141 0 7.499-3.357 7.499-7.499v-66.629c0-7.52-2.929-14.599-8.263-19.947-5.411-5.397-12.598-8.338-20.231-8.248-15.382.162-27.897 13.047-27.897 28.725v4.57c0 4.793-1.863 9.292-5.253 12.675-3.387 3.387-7.888 5.252-12.675 5.252-9.879 0-17.917-8.042-17.917-17.927v-90.945c0-7.807-3.041-15.139-8.549-20.634-5.637-5.65-13.153-8.697-21.142-8.561-15.824.266-28.699 13.582-28.699 29.684v2.1c0 4.077-1.589 7.911-4.467 10.789-2.954 2.947-6.875 4.527-11.033 4.48-8.296-.12-15.045-7.198-15.045-15.778v-97.668c16.302-13.111 39.841-12.009 54.894 3.052l198.063 198.063c7.79 7.785 12.08 18.138 12.08 29.15 0 3.35-.402 6.637-1.174 9.811-3.745-9.02-12.646-15.381-23.012-15.381-13.728 0-24.896 11.168-24.896 24.896v140.336zm14.997-140.336c0-5.458 4.44-9.898 9.908-9.898 5.458 0 9.899 4.44 9.899 9.898v12.031l-19.807 19.807z"/></g></svg>