<?xml version="1.0" encoding="iso-8859-1"?>
<!-- Generator: Adobe Illustrator 16.0.0, SVG Export Plug-In . SVG Version: 6.00 Build 0)  -->
<!DOCTYPE svg PUBLIC "-//W3C//DTD SVG 1.1//EN" "http://www.w3.org/Graphics/SVG/1.1/DTD/svg11.dtd">
<svg version="1.1" id="Capa_1" xmlns="http://www.w3.org/2000/svg" xmlns:xlink="http://www.w3.org/1999/xlink" x="0px" y="0px"
	 width="297.276px" height="297.276px" viewBox="0 0 297.276 297.276" style="enable-background:new 0 0 297.276 297.276;"
	 xml:space="preserve">
<g>
	<path d="M18.617,111.892c1.17,0,2.348-0.389,3.323-1.186l23.622-19.308v120.212c0,2.906,2.354,5.257,5.256,5.257
		c2.902,0,5.256-2.351,5.256-5.257V82.801l86.741-70.892l95.992,71.569v128.13c0,2.906,2.354,5.257,5.256,5.257
		c2.902,0,5.257-2.351,5.257-5.257V91.317l26.196,19.532c0.948,0.705,2.047,1.042,3.142,1.042c1.602,0,3.187-0.729,4.216-2.117
		c1.732-2.327,1.253-5.621-1.074-7.356l-33.305-24.831c-0.678-1.073-1.734-1.865-2.984-2.227L145.809,1.025
		c-0.091-0.067-0.192-0.108-0.284-0.171c-0.178-0.117-0.353-0.228-0.536-0.318c-0.13-0.068-0.267-0.113-0.399-0.166
		c-0.183-0.074-0.364-0.144-0.551-0.197c-0.147-0.038-0.294-0.058-0.441-0.087c-0.187-0.031-0.368-0.067-0.558-0.081
		c-0.144-0.01-0.288-0.003-0.435,0c-0.192,0-0.385,0.003-0.579,0.029c-0.139,0.017-0.272,0.051-0.409,0.077
		c-0.193,0.038-0.382,0.077-0.575,0.141c-0.144,0.044-0.277,0.111-0.417,0.167c-0.171,0.074-0.339,0.144-0.508,0.231
		c-0.154,0.087-0.294,0.193-0.441,0.294c-0.108,0.074-0.224,0.133-0.332,0.221l-38.821,31.735V21.462
		c0-2.905-2.354-5.256-5.256-5.256H67.259c-2.9,0-5.256,2.351-5.256,5.256v42.921l-46.711,38.179
		c-2.25,1.836-2.58,5.148-0.744,7.397C15.582,111.232,17.096,111.892,18.617,111.892z M72.513,26.719h17.494v14.773L72.513,55.79
		V26.719z"/>
	<path d="M211.56,124.36c1.938,0,3.505-1.571,3.505-3.504V86.807c0-1.933-1.567-3.504-3.505-3.504H89.278
		c-1.939,0-3.504,1.571-3.504,3.504v34.049c0,1.934,1.565,3.504,3.504,3.504H211.56z M92.782,90.311H208.06v27.041H92.782V90.311z"
		/>
	<path d="M76.929,100.326c-1.938,0-3.504,1.571-3.504,3.504v30.803c0,1.802,1.362,3.306,3.15,3.487l70.341,7.092v25.868h-13.764
		c-1.938,0-3.504,1.57-3.504,3.504v29.479h-9.881c-3.46,0.007-6.276,2.827-6.276,6.283v9.268c0,0.999,0.255,1.937,0.676,2.778
		c-0.421,0.842-0.676,1.776-0.676,2.779v9.264c0,1.003,0.255,1.94,0.676,2.778c-0.421,0.843-0.676,1.776-0.676,2.782v9.261
		c0,1.006,0.255,1.94,0.676,2.778c-0.421,0.842-0.676,1.78-0.676,2.779v9.271c0,3.456,2.816,6.276,6.276,6.286
		c0.003,0,0.003,0,0.007,0h9.875v7.919c0,10.469,8.516,18.986,18.979,18.986h0.01c10.469,0,18.986-8.521,18.986-18.986v-8.911
		c0.999,0.641,2.152,0.992,3.367,0.992h13.915c2.258,0,4.229-1.215,5.331-3.011c1.109,1.796,3.077,3.011,5.339,3.011h10.181
		c0.004,0,0.021,0,0.024,0c1.677,0,3.251-0.656,4.435-1.841c1.188-1.19,1.838-2.771,1.835-4.441l0.003-53.729
		c0-1.684-0.657-3.254-1.838-4.441c-1.188-1.191-2.765-1.845-4.445-1.845h-10.198c-1.656,0-3.203,0.64-4.384,1.797v-10.39
		c0-0.209-0.01-0.418-0.034-0.62c0.164-2.002-0.643-3.973-2.193-5.287l-20.16-17.021c-1.218-1.02-2.967-1.465-4.404-1.403
		c-0.092-0.007-0.178-0.055-0.277-0.055h-0.938c-0.03,0-0.071,0-0.105,0c-0.038,0-0.076,0-0.106,0h-9.041v-29.053
		c0-1.802-1.362-3.306-3.15-3.487l-70.341-7.092v-27.632C80.433,101.897,78.866,100.326,76.929,100.326z M196.304,211.076h8.74
		l-0.003,52.28h-8.737V211.076z M136.659,194.502c0,0.055,0.031,0.109,0.031,0.164c0.033,0.623,0.14,1.229,0.351,1.811
		c0.036,0.093,0.077,0.175,0.116,0.271c0.245,0.596,0.556,1.167,0.987,1.677l4.758,5.64h-6.244V194.502z M120.501,211.072h12.653
		h12.262l-0.003,7.816h-24.912V211.072z M120.501,225.897h24.915l-0.003,3.908v3.904h-12.486h-12.426V225.897z M120.501,240.722
		h12.426h12.486v3.908l0.003,3.908h-12.429h-12.486V240.722z M133.155,263.356c-0.003,0-0.007,0-0.007,0h-12.646v-7.816h12.429
		h12.486v7.812h-12.262V263.356z M160.614,278.29c0,6.605-5.376,11.978-11.984,11.978c-6.603,0-11.971-5.379-11.971-11.978v-7.919
		h9.483c3.461,0,6.283-2.819,6.283-6.282v-9.268c0-0.473-0.062-0.924-0.157-1.362c-0.036-0.15-0.093-0.287-0.137-0.438
		c-0.081-0.281-0.171-0.555-0.294-0.812c-0.026-0.051-0.033-0.112-0.061-0.167c0.024-0.049,0.034-0.106,0.061-0.158
		c0.13-0.28,0.224-0.574,0.311-0.869c0.043-0.133,0.088-0.257,0.12-0.394c0.095-0.441,0.157-0.893,0.157-1.358l-0.003-9.268
		c0-0.469-0.063-0.92-0.157-1.361c-0.036-0.147-0.09-0.281-0.131-0.421c-0.084-0.288-0.18-0.568-0.301-0.832
		c-0.022-0.052-0.032-0.109-0.057-0.157c0.027-0.059,0.039-0.123,0.066-0.185c0.124-0.271,0.218-0.555,0.302-0.835
		c0.043-0.145,0.094-0.281,0.127-0.418c0.091-0.438,0.15-0.89,0.15-1.345l0.003-9.271c0-0.466-0.062-0.917-0.157-1.362
		c-0.036-0.144-0.093-0.287-0.134-0.431c-0.084-0.288-0.18-0.568-0.301-0.836c-0.025-0.047-0.036-0.105-0.06-0.157
		c0.023-0.048,0.03-0.103,0.056-0.15c0.125-0.267,0.221-0.551,0.305-0.842c0.043-0.141,0.095-0.273,0.131-0.417
		c0.094-0.438,0.157-0.894,0.157-1.362l0.003-9.268c0-0.526-0.084-1.026-0.207-1.516c-0.037-0.147-0.084-0.284-0.133-0.428
		c-0.115-0.356-0.256-0.688-0.432-1.01c-0.041-0.079-0.063-0.175-0.104-0.25c0.077-0.034,0.144-0.103,0.221-0.144
		c0.425-0.205,0.83-0.448,1.201-0.76l7.644-6.454V278.29L160.614,278.29z M163.249,178.168c0.432,0.106,0.78,0.127,1.283-0.003
		c0.014,0,0.035-0.007,0.049-0.014l19.526,16.495c-0.027,0.267-0.011,0.499,0.072,0.828v67.889h-12.468l-0.003-67.328
		c0-1.029-0.455-2.012-1.239-2.676l-4.312-3.638c-1.308-1.078-3.196-1.071-4.497,0.021l-12.649,10.688l-5.04-5.976L163.249,178.168z
		 M152.479,178.09l-13.592,11.478c-1.281,1.089-2.066,2.601-2.207,4.274c-0.01,0.141-0.017,0.277-0.021,0.41V178.09H152.479z"/>
</g>
<g>
</g>
<g>
</g>
<g>
</g>
<g>
</g>
<g>
</g>
<g>
</g>
<g>
</g>
<g>
</g>
<g>
</g>
<g>
</g>
<g>
</g>
<g>
</g>
<g>
</g>
<g>
</g>
<g>
</g>
</svg>
