<?xml version="1.0" encoding="iso-8859-1"?>
<!-- Generator: Adobe Illustrator 16.0.0, SVG Export Plug-In . SVG Version: 6.00 Build 0)  -->
<!DOCTYPE svg PUBLIC "-//W3C//DTD SVG 1.1//EN" "http://www.w3.org/Graphics/SVG/1.1/DTD/svg11.dtd">
<svg version="1.1" id="Capa_1" xmlns="http://www.w3.org/2000/svg" xmlns:xlink="http://www.w3.org/1999/xlink" x="0px" y="0px"
	 width="477.491px" height="477.491px" viewBox="0 0 477.491 477.491" style="enable-background:new 0 0 477.491 477.491;"
	 xml:space="preserve">
<g>
	<g>
		<path d="M121.979,96.311l26.835-21.932V51.717h-26.835V96.311z"/>
		<path d="M449.438,159.214l-49.832-37.161c-1.906-2.288-4.321-4.094-7.066-5.268L240.705,3.59
			c-0.428-0.304-0.858-0.575-0.961-0.617c-0.607-0.394-1.22-0.758-1.779-1.036c-0.467-0.231-0.945-0.436-1.462-0.63
			c-0.646-0.257-1.302-0.494-2.027-0.688c-0.477-0.128-0.957-0.226-1.65-0.344c-0.617-0.113-1.247-0.205-1.897-0.249
			C230.645,0.01,229.553,0,229.396,0c-0.671,0.005-1.354,0.039-2.089,0.118c-0.485,0.06-0.953,0.147-1.488,0.265
			c-0.672,0.134-1.339,0.293-2.011,0.509c-0.5,0.158-0.978,0.349-1.522,0.588c-0.58,0.242-1.144,0.499-1.902,0.908
			c-0.499,0.284-0.979,0.601-1.189,0.767l-0.935,0.593l-43.142,35.263c-2.076-8.134-9.468-14.165-18.234-14.165h-42.961
			c-10.373,0-18.814,8.44-18.814,18.813v60.743l-67.707,55.334c-3.893,3.181-6.312,7.686-6.816,12.686
			c-0.506,5,0.974,9.896,4.145,13.777c3.585,4.396,8.895,6.918,14.577,6.918c4.329,0,8.552-1.512,11.9-4.246l18.686-15.269v161.729
			c0,10.374,8.441,18.814,18.813,18.814c10.376,0,18.814-8.44,18.814-18.814V142.847L230.133,42.638L366.318,144.18v191.151
			c0,10.374,8.442,18.814,18.814,18.814c10.377,0,18.814-8.44,18.814-18.814V172.228l23.012,17.16
			c3.277,2.438,7.162,3.725,11.234,3.725c5.926,0,11.559-2.835,15.093-7.569C459.48,177.233,457.758,165.417,449.438,159.214z
			 M444.662,179.121c-1.582,2.123-4.012,3.247-6.469,3.247c-1.675,0-3.365-0.522-4.812-1.599l-40.19-29.961v184.523
			c0,4.453-3.611,8.063-8.062,8.063c-4.452,0-8.063-3.61-8.063-8.063V138.783L229.827,29L96.77,137.744v197.577
			c0,4.458-3.612,8.062-8.063,8.062s-8.063-3.604-8.063-8.062V150.926l-36.233,29.617c-1.496,1.228-3.302,1.819-5.098,1.819
			c-2.338,0-4.654-1.01-6.247-2.963c-2.816-3.449-2.309-8.525,1.142-11.347l71.652-58.565V43.654c0-4.457,3.614-8.063,8.063-8.063
			h42.961c4.452,0,8.063,3.606,8.063,8.063V61.2l59.549-48.675c0.16-0.129,0.339-0.221,0.509-0.338
			c0.226-0.156,0.441-0.323,0.677-0.452c0.26-0.139,0.517-0.247,0.779-0.354c0.216-0.092,0.42-0.189,0.641-0.257
			c0.297-0.097,0.585-0.158,0.882-0.215c0.209-0.045,0.415-0.098,0.627-0.118c0.296-0.034,0.592-0.039,0.887-0.044
			c0.226,0,0.446-0.011,0.667,0c0.292,0.021,0.57,0.076,0.855,0.124c0.226,0.044,0.452,0.075,0.678,0.136
			c0.291,0.078,0.563,0.186,0.845,0.299c0.202,0.082,0.412,0.153,0.611,0.254c0.286,0.14,0.554,0.315,0.822,0.488
			c0.142,0.097,0.296,0.161,0.436,0.263l152.936,114.027c1.917,0.553,3.532,1.77,4.584,3.415l51.086,38.084
			C446.587,170.498,447.321,175.55,444.662,179.121z"/>
		<path d="M220.377,308.707c0.005-0.21,0.016-0.42,0.031-0.631c0.215-2.565,1.419-4.891,3.386-6.561l20.848-17.602h-24.265V308.707z
			"/>
		<path d="M153.072,190.742h176.833v-41.478H153.072V190.742z"/>
		<path d="M335.274,127.763H147.696c-8.89,0-16.126,7.236-16.126,16.126v10.273c-0.918-0.161-1.85-0.286-2.81-0.286
			c-8.893,0-16.127,7.236-16.127,16.126v47.25c0,8.31,6.236,15.208,14.507,16.048l98.224,9.906v19.212h-10.362
			c-8.89,0-16.126,7.235-16.126,16.127v34.469h-4.431c-11.223,0.021-20.354,9.165-20.354,20.389v14.21
			c0,1.442,0.155,2.865,0.462,4.267c-0.307,1.397-0.462,2.825-0.462,4.263v14.205c0,1.443,0.149,2.866,0.462,4.264
			c-0.313,1.4-0.462,2.823-0.462,4.267v14.21c0,1.438,0.149,2.867,0.462,4.262c-0.313,1.397-0.462,2.825-0.462,4.264v14.221
			c0,11.217,9.137,20.363,20.389,20.389h4.396v1.396c0,21.985,17.89,39.875,39.875,39.875c21.986,0,39.877-17.89,39.877-39.875v-1.4
			h15.753c2.877,0,5.653-0.6,8.188-1.712c2.531,1.117,5.303,1.712,8.18,1.712h15.647c5.45,0,10.568-2.132,14.41-5.98
			c3.858-3.856,5.969-8.98,5.959-14.403l0.005-82.421c0-5.439-2.116-10.551-5.97-14.415c-3.852-3.854-8.976-5.974-14.42-5.974
			h-11.617v-2.436c0-0.357-0.01-0.703-0.025-1.057c0.199-6.188-2.441-12.192-7.202-16.226l-30.951-26.13
			c-3.28-2.753-7.669-4.421-12.173-4.651l-0.373-0.106h-6.42v-33.8c0-8.31-6.235-15.208-14.51-16.047l-3.278-0.33h95.448
			c8.887,0,16.125-7.236,16.125-16.127v-52.229C351.399,134.999,344.161,127.763,335.274,127.763z M242.029,223.268
			c2.75,0.279,4.833,2.586,4.833,5.349v44.546h13.87c0.042,0,0.104,0,0.161,0c0.06,0,0.111,0,0.158,0h1.444
			c0.147,0,0.277,0.073,0.426,0.084c2.199-0.1,4.882,0.589,6.755,2.157l30.924,26.111c2.373,2.016,3.612,5.039,3.365,8.105
			c0.031,0.314,0.047,0.629,0.047,0.955v15.936c1.812-1.773,4.189-2.761,6.726-2.761h15.643c2.572,0,4.998,1.008,6.819,2.831
			c1.822,1.82,2.819,4.24,2.819,6.809l-0.005,82.426c0.005,2.562-0.992,4.986-2.814,6.808c-1.816,1.822-4.226,2.819-6.804,2.819
			c-0.006,0-0.026,0-0.031,0h-15.616c-3.47,0-6.489-1.858-8.185-4.614c-1.696,2.756-4.719,4.614-8.184,4.614h-21.339
			c-1.864,0-3.633-0.535-5.165-1.511v13.663c0,16.059-13.071,29.124-29.126,29.124h-0.011c-16.05,0-29.114-13.065-29.114-29.124
			v-12.152h-15.147c-0.006,0-0.006,0-0.011,0c-5.307-0.01-9.627-4.336-9.627-9.639v-14.214c0-1.534,0.391-2.973,1.037-4.264
			c-0.646-1.291-1.037-2.724-1.037-4.262V378.85c0-1.532,0.391-2.971,1.037-4.264c-0.646-1.285-1.037-2.719-1.037-4.262v-14.205
			c0-1.543,0.391-2.971,1.037-4.267c-0.646-1.286-1.037-2.725-1.037-4.262v-14.212c0-5.302,4.32-9.628,9.627-9.638h15.158v-45.218
			c0-2.972,2.401-5.376,5.375-5.376h21.113v-39.682l-107.899-10.87c-2.748-0.278-4.832-2.585-4.832-5.349v-47.25
			c0-2.966,2.401-5.375,5.376-5.375c2.971,0,5.375,2.41,5.375,5.375v42.387L242.029,223.268z M340.649,196.118
			c0,2.966-2.404,5.375-5.375,5.375H147.696c-2.974,0-5.375-2.41-5.375-5.375v-52.229c0-2.966,2.402-5.375,5.375-5.375h187.583
			c2.971,0,5.376,2.41,5.376,5.375v52.229H340.649z"/>
		<rect x="311.866" y="334.513" width="13.407" height="80.195"/>
		<polygon points="233.811,391.968 233.805,385.979 233.805,379.982 214.653,379.982 195.592,379.989 195.592,391.973 
			214.745,391.973 		"/>
		<polygon points="233.811,402.719 214.658,402.724 195.592,402.724 195.592,414.714 214.992,414.708 215.002,414.708 
			233.811,414.708 		"/>
		<path d="M222.655,315.096c-0.661-0.782-1.139-1.654-1.514-2.566c-0.061-0.143-0.124-0.274-0.179-0.42
			c-0.323-0.894-0.488-1.817-0.538-2.776c0-0.086-0.047-0.164-0.047-0.254v14.672h9.578L222.655,315.096z"/>
		<path d="M243.562,328.272c-0.116,0.062-0.221,0.161-0.337,0.221c0.069,0.119,0.101,0.257,0.158,0.382
			c0.272,0.493,0.488,1.008,0.662,1.543c0.078,0.221,0.146,0.431,0.205,0.662c0.182,0.745,0.319,1.517,0.319,2.326l-0.005,14.21
			c0,0.725-0.102,1.416-0.242,2.089c-0.057,0.23-0.137,0.431-0.199,0.641c-0.131,0.452-0.273,0.881-0.468,1.297
			c-0.042,0.078-0.052,0.163-0.089,0.23c0.037,0.078,0.053,0.169,0.094,0.241c0.189,0.41,0.332,0.84,0.463,1.281
			c0.062,0.221,0.147,0.431,0.205,0.661c0.143,0.673,0.241,1.369,0.241,2.089l-0.005,14.221c0,0.698-0.094,1.387-0.231,2.059
			c-0.052,0.221-0.132,0.424-0.194,0.64c-0.131,0.441-0.273,0.872-0.463,1.282c-0.041,0.094-0.062,0.198-0.104,0.288
			c0.036,0.073,0.057,0.162,0.088,0.236c0.185,0.408,0.332,0.84,0.463,1.28c0.062,0.211,0.143,0.421,0.199,0.642
			c0.141,0.671,0.242,1.374,0.242,2.094l0.005,14.21c0,0.714-0.099,1.407-0.241,2.089c-0.053,0.21-0.122,0.399-0.185,0.599
			c-0.13,0.463-0.278,0.903-0.478,1.338c-0.037,0.08-0.058,0.169-0.094,0.247c0.041,0.074,0.057,0.168,0.094,0.252
			c0.189,0.395,0.326,0.82,0.451,1.244c0.068,0.226,0.153,0.441,0.211,0.672c0.143,0.673,0.241,1.366,0.241,2.085v14.221
			c0,5.306-4.331,9.632-9.641,9.632h-14.545v12.148c0,10.131,8.236,18.371,18.362,18.371c10.138,0,18.386-8.245,18.386-18.371
			V317.201l-11.728,9.9C244.837,327.584,244.211,327.951,243.562,328.272z M246.374,437.612c0,4.205-3.428,7.62-7.634,7.62
			c-4.2,0-7.612-3.415-7.612-7.62v-1.401h3.795c4.241,0,8.181-1.304,11.451-3.529V437.612z"/>
		<polygon points="233.805,369.233 233.805,363.237 233.811,357.243 195.592,357.243 195.592,369.238 214.653,369.233 		"/>
		<path d="M239.313,318.173l19.409-16.395c1.994-1.675,4.893-1.68,6.897-0.031l6.608,5.584c1.213,1.019,1.904,2.521,1.904,4.105
			l0.006,103.271h19.118V310.576c-0.115-0.503-0.146-0.866-0.104-1.276l-29.953-25.297c-0.021,0.005-0.052,0.011-0.072,0.016
			c-0.784,0.205-1.309,0.174-1.969,0.005l-29.584,24.982L239.313,318.173z"/>
		<polygon points="233.811,334.503 215.002,334.503 195.592,334.503 195.592,346.492 233.805,346.492 		"/>
	</g>
</g>
<g>
</g>
<g>
</g>
<g>
</g>
<g>
</g>
<g>
</g>
<g>
</g>
<g>
</g>
<g>
</g>
<g>
</g>
<g>
</g>
<g>
</g>
<g>
</g>
<g>
</g>
<g>
</g>
<g>
</g>
</svg>
